<mxfile host="Electron" modified="2023-06-11T20:48:07.895Z" agent="Mozilla/5.0 (Windows NT 10.0; Win64; x64) AppleWebKit/537.36 (KHTML, like Gecko) draw.io/21.3.7 Chrome/112.0.5615.204 Electron/24.5.0 Safari/537.36" etag="AjN-ikBef863N2ucV95H" version="21.3.7" type="device">
  <diagram id="prtHgNgQTEPvFCAcTncT" name="Page-1">
    <mxGraphModel dx="1098" dy="828" grid="1" gridSize="10" guides="1" tooltips="1" connect="1" arrows="1" fold="1" page="1" pageScale="1" pageWidth="827" pageHeight="1169" math="0" shadow="0">
      <root>
        <mxCell id="0" />
        <mxCell id="1" parent="0" />
        <mxCell id="hEoXID5j8JbTr3iO21gX-2" value="cliente&lt;br&gt;" style="shape=umlActor;verticalLabelPosition=bottom;verticalAlign=top;html=1;outlineConnect=0;fillColor=#0050ef;fontColor=#ffffff;strokeColor=#001DBC;" parent="1" vertex="1">
          <mxGeometry x="35" y="18" width="60" height="90" as="geometry" />
        </mxCell>
        <mxCell id="hEoXID5j8JbTr3iO21gX-15" value="" style="shape=cube;whiteSpace=wrap;html=1;boundedLbl=1;backgroundOutline=1;darkOpacity=0.05;darkOpacity2=0.1;rotation=-180;" parent="1" vertex="1">
          <mxGeometry x="150" y="14" width="168" height="120" as="geometry" />
        </mxCell>
        <mxCell id="hEoXID5j8JbTr3iO21gX-16" value="&lt;font style=&quot;font-size: 14px;&quot;&gt;&lt;b&gt;Navegador Web&lt;/b&gt;&lt;/font&gt;" style="rounded=1;whiteSpace=wrap;html=1;" parent="1" vertex="1">
          <mxGeometry x="167" y="44" width="120" height="60" as="geometry" />
        </mxCell>
        <mxCell id="hEoXID5j8JbTr3iO21gX-18" value="&lt;h1 style=&quot;font-size: 17px;&quot;&gt;PC/Dispositivo&lt;/h1&gt;" style="text;html=1;strokeColor=none;fillColor=none;spacing=5;spacingTop=-20;whiteSpace=wrap;overflow=hidden;rounded=0;" parent="1" vertex="1">
          <mxGeometry x="153" y="14" width="130" height="20" as="geometry" />
        </mxCell>
        <mxCell id="hEoXID5j8JbTr3iO21gX-19" style="edgeStyle=orthogonalEdgeStyle;rounded=0;orthogonalLoop=1;jettySize=auto;html=1;exitX=0.5;exitY=1;exitDx=0;exitDy=0;" parent="1" source="hEoXID5j8JbTr3iO21gX-18" target="hEoXID5j8JbTr3iO21gX-18" edge="1">
          <mxGeometry relative="1" as="geometry" />
        </mxCell>
        <mxCell id="hEoXID5j8JbTr3iO21gX-20" value="" style="endArrow=classic;startArrow=classic;html=1;rounded=0;entryX=0;entryY=0;entryDx=168;entryDy=70;entryPerimeter=0;fillColor=#6a00ff;strokeColor=#3700CC;exitX=0.5;exitY=0.5;exitDx=0;exitDy=0;exitPerimeter=0;" parent="1" source="hEoXID5j8JbTr3iO21gX-2" target="hEoXID5j8JbTr3iO21gX-15" edge="1">
          <mxGeometry width="50" height="50" relative="1" as="geometry">
            <mxPoint x="75" y="74" as="sourcePoint" />
            <mxPoint x="150" y="74" as="targetPoint" />
          </mxGeometry>
        </mxCell>
        <mxCell id="hEoXID5j8JbTr3iO21gX-21" value="" style="shape=cube;whiteSpace=wrap;html=1;boundedLbl=1;backgroundOutline=1;darkOpacity=0.05;darkOpacity2=0.1;direction=west;" parent="1" vertex="1">
          <mxGeometry x="227" y="288" width="220" height="310" as="geometry" />
        </mxCell>
        <mxCell id="hEoXID5j8JbTr3iO21gX-22" value="&lt;h1 style=&quot;&quot;&gt;&lt;font style=&quot;font-size: 18px;&quot;&gt;Servidor Web&lt;/font&gt;&lt;/h1&gt;" style="text;html=1;strokeColor=none;fillColor=none;spacing=5;spacingTop=-20;whiteSpace=wrap;overflow=hidden;rounded=0;" parent="1" vertex="1">
          <mxGeometry x="257" y="288" width="140" height="30" as="geometry" />
        </mxCell>
        <mxCell id="hEoXID5j8JbTr3iO21gX-23" value="&lt;font style=&quot;font-size: 15px;&quot;&gt;Sistema de infirmacion&lt;/font&gt;" style="rounded=1;whiteSpace=wrap;html=1;" parent="1" vertex="1">
          <mxGeometry x="247" y="333" width="150" height="90" as="geometry" />
        </mxCell>
        <mxCell id="hEoXID5j8JbTr3iO21gX-24" value="" style="rounded=1;whiteSpace=wrap;html=1;" parent="1" vertex="1">
          <mxGeometry x="237" y="443" width="160" height="120" as="geometry" />
        </mxCell>
        <mxCell id="hEoXID5j8JbTr3iO21gX-26" value="" style="rounded=0;whiteSpace=wrap;html=1;fillColor=#fff2cc;strokeColor=#d6b656;" parent="1" vertex="1">
          <mxGeometry x="377" y="383" width="40" height="20" as="geometry" />
        </mxCell>
        <mxCell id="hEoXID5j8JbTr3iO21gX-27" value="" style="rounded=0;whiteSpace=wrap;html=1;fillColor=#fff2cc;strokeColor=#d6b656;" parent="1" vertex="1">
          <mxGeometry x="382" y="460" width="40" height="20" as="geometry" />
        </mxCell>
        <mxCell id="hEoXID5j8JbTr3iO21gX-29" value="&lt;h1 style=&quot;font-size: 14px;&quot;&gt;&lt;font style=&quot;font-size: 14px; font-weight: normal;&quot;&gt;Base de datos&lt;/font&gt;&lt;/h1&gt;&lt;div style=&quot;font-size: 14px;&quot;&gt;&lt;font style=&quot;font-size: 14px;&quot;&gt;Registro de usuario&lt;/font&gt;&lt;/div&gt;&lt;div style=&quot;font-size: 14px;&quot;&gt;&lt;font style=&quot;font-size: 14px;&quot;&gt;Regustro de vehiculo&lt;/font&gt;&lt;/div&gt;&lt;div style=&quot;font-size: 14px;&quot;&gt;&lt;font style=&quot;font-size: 14px;&quot;&gt;Parqueaderos&lt;/font&gt;&lt;/div&gt;" style="text;html=1;spacing=5;spacingTop=-20;whiteSpace=wrap;overflow=hidden;rounded=0;" parent="1" vertex="1">
          <mxGeometry x="252" y="458" width="140" height="90" as="geometry" />
        </mxCell>
        <mxCell id="W0TP_wqyuaIn3-xBMjZR-2" value="" style="shape=cube;whiteSpace=wrap;html=1;boundedLbl=1;backgroundOutline=1;darkOpacity=0.05;darkOpacity2=0.1;rotation=-180;" parent="1" vertex="1">
          <mxGeometry x="286" y="689" width="230" height="170" as="geometry" />
        </mxCell>
        <mxCell id="W0TP_wqyuaIn3-xBMjZR-3" value="" style="endArrow=classic;startArrow=classic;html=1;rounded=0;entryX=0.75;entryY=1;entryDx=0;entryDy=0;fillColor=#0050ef;strokeColor=#001DBC;exitX=0.625;exitY=0.1;exitDx=0;exitDy=0;exitPerimeter=0;" parent="1" source="hEoXID5j8JbTr3iO21gX-27" target="hEoXID5j8JbTr3iO21gX-26" edge="1">
          <mxGeometry width="50" height="50" relative="1" as="geometry">
            <mxPoint x="417" y="483" as="sourcePoint" />
            <mxPoint x="417" y="393" as="targetPoint" />
          </mxGeometry>
        </mxCell>
        <mxCell id="W0TP_wqyuaIn3-xBMjZR-5" value="" style="rounded=1;whiteSpace=wrap;html=1;" parent="1" vertex="1">
          <mxGeometry x="316" y="718" width="170" height="110" as="geometry" />
        </mxCell>
        <mxCell id="W0TP_wqyuaIn3-xBMjZR-8" value="" style="endArrow=classic;startArrow=classic;html=1;rounded=0;fillColor=#0050ef;strokeColor=#001DBC;entryX=0;entryY=0;entryDx=20;entryDy=170;exitX=0;exitY=0;exitDx=100;exitDy=0;exitPerimeter=0;entryPerimeter=0;" parent="1" source="hEoXID5j8JbTr3iO21gX-21" target="W0TP_wqyuaIn3-xBMjZR-2" edge="1">
          <mxGeometry width="50" height="50" relative="1" as="geometry">
            <mxPoint x="363.98" y="576.0699999999999" as="sourcePoint" />
            <mxPoint x="659" y="525" as="targetPoint" />
          </mxGeometry>
        </mxCell>
        <mxCell id="W0TP_wqyuaIn3-xBMjZR-11" value="&lt;h1 style=&quot;&quot;&gt;&lt;font style=&quot;font-size: 15px;&quot;&gt;servidor base de datos&lt;/font&gt;&lt;/h1&gt;" style="text;html=1;strokeColor=none;fillColor=none;spacing=5;spacingTop=-20;whiteSpace=wrap;overflow=hidden;rounded=0;" parent="1" vertex="1">
          <mxGeometry x="306" y="679" width="180" height="30" as="geometry" />
        </mxCell>
        <mxCell id="W0TP_wqyuaIn3-xBMjZR-12" value="&lt;h1 style=&quot;font-size: 14px;&quot;&gt;&lt;font style=&quot;font-size: 14px; font-weight: normal;&quot;&gt;Base de datos&lt;/font&gt;&lt;/h1&gt;&lt;div style=&quot;font-size: 14px;&quot;&gt;&lt;font style=&quot;font-size: 14px;&quot;&gt;Registro ingresos de vehiculos&lt;/font&gt;&lt;/div&gt;&lt;div style=&quot;font-size: 14px;&quot;&gt;&lt;font style=&quot;font-size: 14px;&quot;&gt;parqueaderos&lt;/font&gt;&lt;/div&gt;" style="text;html=1;spacing=5;spacingTop=-20;whiteSpace=wrap;overflow=hidden;rounded=0;" parent="1" vertex="1">
          <mxGeometry x="341" y="728" width="140" height="90" as="geometry" />
        </mxCell>
        <mxCell id="i9Brm9OFw-MJMTzfkH1W-2" value="" style="shape=cube;whiteSpace=wrap;html=1;boundedLbl=1;backgroundOutline=1;darkOpacity=0.05;darkOpacity2=0.1;rotation=-180;" parent="1" vertex="1">
          <mxGeometry x="426" y="170" width="110" height="74" as="geometry" />
        </mxCell>
        <mxCell id="i9Brm9OFw-MJMTzfkH1W-3" value="&lt;font style=&quot;font-size: 17px;&quot;&gt;Loging&lt;/font&gt;" style="rounded=1;whiteSpace=wrap;html=1;" parent="1" vertex="1">
          <mxGeometry x="431" y="178" width="80" height="39" as="geometry" />
        </mxCell>
        <mxCell id="i9Brm9OFw-MJMTzfkH1W-4" value="" style="endArrow=classic;startArrow=classic;html=1;rounded=0;fontSize=17;entryX=0.986;entryY=0.532;entryDx=0;entryDy=0;entryPerimeter=0;fillColor=#0050ef;strokeColor=#001DBC;exitX=0.006;exitY=0.467;exitDx=0;exitDy=0;exitPerimeter=0;" parent="1" source="hEoXID5j8JbTr3iO21gX-15" target="i9Brm9OFw-MJMTzfkH1W-9" edge="1">
          <mxGeometry width="50" height="50" relative="1" as="geometry">
            <mxPoint x="350" y="80" as="sourcePoint" />
            <mxPoint x="405" y="90.5" as="targetPoint" />
          </mxGeometry>
        </mxCell>
        <mxCell id="i9Brm9OFw-MJMTzfkH1W-5" value="" style="endArrow=classic;startArrow=classic;html=1;rounded=0;fontSize=17;entryX=0;entryY=0;entryDx=45;entryDy=0;entryPerimeter=0;exitX=0;exitY=0;exitDx=20;exitDy=310;fillColor=#0050ef;strokeColor=#001DBC;exitPerimeter=0;" parent="1" source="hEoXID5j8JbTr3iO21gX-21" target="i9Brm9OFw-MJMTzfkH1W-2" edge="1">
          <mxGeometry width="50" height="50" relative="1" as="geometry">
            <mxPoint x="590" y="350" as="sourcePoint" />
            <mxPoint x="640" y="300" as="targetPoint" />
          </mxGeometry>
        </mxCell>
        <mxCell id="i9Brm9OFw-MJMTzfkH1W-6" value="" style="shape=cube;whiteSpace=wrap;html=1;boundedLbl=1;backgroundOutline=1;darkOpacity=0.05;darkOpacity2=0.1;strokeColor=#FFFFFF;fontSize=17;rotation=-180;" parent="1" vertex="1">
          <mxGeometry x="560" y="577" width="220" height="131" as="geometry" />
        </mxCell>
        <mxCell id="i9Brm9OFw-MJMTzfkH1W-7" value="Descarga de carnet y codigo QR&lt;br&gt;escaneo de codigo QR" style="rounded=1;whiteSpace=wrap;html=1;fontSize=17;" parent="1" vertex="1">
          <mxGeometry x="572" y="589" width="178" height="90" as="geometry" />
        </mxCell>
        <mxCell id="i9Brm9OFw-MJMTzfkH1W-9" value="" style="shape=cube;whiteSpace=wrap;html=1;boundedLbl=1;backgroundOutline=1;darkOpacity=0.05;darkOpacity2=0.1;strokeColor=#FFFFFF;fontSize=17;rotation=-180;" parent="1" vertex="1">
          <mxGeometry x="386" y="34" width="138" height="94" as="geometry" />
        </mxCell>
        <mxCell id="i9Brm9OFw-MJMTzfkH1W-10" value="&lt;font style=&quot;font-size: 17px;&quot;&gt;HTTP Servir&lt;/font&gt;" style="rounded=1;whiteSpace=wrap;html=1;fontSize=17;" parent="1" vertex="1">
          <mxGeometry x="391" y="41" width="107" height="56" as="geometry" />
        </mxCell>
        <mxCell id="i9Brm9OFw-MJMTzfkH1W-11" value="" style="endArrow=classic;startArrow=classic;html=1;rounded=0;fontSize=17;exitX=0;exitY=0;exitDx=65;exitDy=74;exitPerimeter=0;entryX=0;entryY=0;entryDx=59;entryDy=0;entryPerimeter=0;fillColor=#0050ef;strokeColor=#001DBC;" parent="1" source="i9Brm9OFw-MJMTzfkH1W-2" target="i9Brm9OFw-MJMTzfkH1W-9" edge="1">
          <mxGeometry width="50" height="50" relative="1" as="geometry">
            <mxPoint x="638" y="164" as="sourcePoint" />
            <mxPoint x="688" y="114" as="targetPoint" />
          </mxGeometry>
        </mxCell>
        <mxCell id="i9Brm9OFw-MJMTzfkH1W-12" value="" style="shape=cube;whiteSpace=wrap;html=1;boundedLbl=1;backgroundOutline=1;darkOpacity=0.05;darkOpacity2=0.1;strokeColor=#FFFFFF;fontSize=17;rotation=-180;" parent="1" vertex="1">
          <mxGeometry x="10" y="610" width="170" height="115" as="geometry" />
        </mxCell>
        <mxCell id="i9Brm9OFw-MJMTzfkH1W-13" value="BD Servir" style="text;html=1;strokeColor=none;fillColor=none;align=center;verticalAlign=middle;whiteSpace=wrap;rounded=0;fontSize=17;" parent="1" vertex="1">
          <mxGeometry x="15" y="606" width="80" height="30" as="geometry" />
        </mxCell>
        <mxCell id="i9Brm9OFw-MJMTzfkH1W-14" value="Almacenamiento&lt;br&gt;de los datos" style="rounded=1;whiteSpace=wrap;html=1;fontSize=17;" parent="1" vertex="1">
          <mxGeometry x="20" y="632" width="130" height="64" as="geometry" />
        </mxCell>
        <mxCell id="i9Brm9OFw-MJMTzfkH1W-15" value="" style="endArrow=classic;startArrow=classic;html=1;rounded=0;fontSize=17;exitX=1;exitY=0;exitDx=0;exitDy=0;entryX=0;entryY=0;entryDx=220;entryDy=165;entryPerimeter=0;fillColor=#0050ef;strokeColor=#001DBC;" parent="1" source="i9Brm9OFw-MJMTzfkH1W-13" target="hEoXID5j8JbTr3iO21gX-21" edge="1">
          <mxGeometry width="50" height="50" relative="1" as="geometry">
            <mxPoint x="170" y="554" as="sourcePoint" />
            <mxPoint x="220" y="504" as="targetPoint" />
          </mxGeometry>
        </mxCell>
        <mxCell id="i9Brm9OFw-MJMTzfkH1W-16" value="" style="endArrow=classic;startArrow=classic;html=1;rounded=0;fontSize=17;exitX=0;exitY=0;exitDx=0;exitDy=47.5;exitPerimeter=0;entryX=1;entryY=1;entryDx=0;entryDy=0;entryPerimeter=0;fillColor=#0050ef;strokeColor=#001DBC;" parent="1" source="i9Brm9OFw-MJMTzfkH1W-12" target="W0TP_wqyuaIn3-xBMjZR-2" edge="1">
          <mxGeometry width="50" height="50" relative="1" as="geometry">
            <mxPoint x="350" y="770" as="sourcePoint" />
            <mxPoint x="400" y="720" as="targetPoint" />
          </mxGeometry>
        </mxCell>
        <mxCell id="QpKLJxQ5OTe2D5Odaoei-3" value="" style="endArrow=classic;startArrow=classic;html=1;rounded=0;entryX=0;entryY=0;entryDx=210;entryDy=10;entryPerimeter=0;fillColor=#0050ef;strokeColor=#001DBC;exitX=-0.013;exitY=0.635;exitDx=0;exitDy=0;exitPerimeter=0;" edge="1" parent="1" source="W0TP_wqyuaIn3-xBMjZR-2" target="i9Brm9OFw-MJMTzfkH1W-6">
          <mxGeometry width="50" height="50" relative="1" as="geometry">
            <mxPoint x="516" y="779" as="sourcePoint" />
            <mxPoint x="616" y="748" as="targetPoint" />
          </mxGeometry>
        </mxCell>
        <mxCell id="QpKLJxQ5OTe2D5Odaoei-4" value="" style="shape=cube;whiteSpace=wrap;html=1;boundedLbl=1;backgroundOutline=1;darkOpacity=0.05;darkOpacity2=0.1;rotation=-180;" vertex="1" parent="1">
          <mxGeometry y="810" width="207.5" height="110" as="geometry" />
        </mxCell>
        <mxCell id="QpKLJxQ5OTe2D5Odaoei-6" value="&lt;font style=&quot;font-size: 14px;&quot;&gt;hirtorial de entradas y salidas de los vehiculos&lt;/font&gt;" style="rounded=1;whiteSpace=wrap;html=1;" vertex="1" parent="1">
          <mxGeometry x="10" y="820" width="170" height="70" as="geometry" />
        </mxCell>
        <mxCell id="QpKLJxQ5OTe2D5Odaoei-7" value="" style="endArrow=classic;startArrow=classic;html=1;rounded=0;exitX=0;exitY=0;exitDx=113.75;exitDy=110;exitPerimeter=0;entryX=0.5;entryY=-0.043;entryDx=0;entryDy=0;entryPerimeter=0;fillColor=#0050ef;strokeColor=#001DBC;" edge="1" parent="1" source="QpKLJxQ5OTe2D5Odaoei-4" target="i9Brm9OFw-MJMTzfkH1W-12">
          <mxGeometry width="50" height="50" relative="1" as="geometry">
            <mxPoint x="45" y="810" as="sourcePoint" />
            <mxPoint x="95" y="760" as="targetPoint" />
          </mxGeometry>
        </mxCell>
      </root>
    </mxGraphModel>
  </diagram>
</mxfile>
